<svg xmlns="http://www.w3.org/2000/svg" viewBox="0 0 39.33 40.14"><defs><style>.cls-1{fill:#fff;}.cls-2{fill:#e4d804;}</style></defs><g id="Layer_2" data-name="Layer 2"><g id="Layer_1-2" data-name="Layer 1"><path class="cls-1" d="M18,0a18,18,0,1,0,0,36.07,18.49,18.49,0,0,0,2-.1,18,18,0,0,1-3.78-5.62A12.45,12.45,0,1,1,30.48,18v.23A18.41,18.41,0,0,1,35,22c.18.19.35.39.51.59A18.07,18.07,0,0,0,18,0ZM29.5,26.8A12.66,12.66,0,0,0,28,25.49a12.52,12.52,0,0,1-4.19,3.56,14.34,14.34,0,0,0,1.27,1.69,13.36,13.36,0,0,0,2.8,2.41,18.17,18.17,0,0,0,3.87-3.4A13.29,13.29,0,0,0,29.5,26.8Z"/><path class="cls-2" d="M35.49,22.61c-.16-.2-.33-.4-.51-.59a18.41,18.41,0,0,0-4.5-3.75,13.51,13.51,0,0,0-5.9-1.94A7.59,7.59,0,0,0,19,18.06c-3.89,3.43-3,10.76,1.91,16.37,3.05,3.47,7,5.47,10.4,5.69a7.59,7.59,0,0,0,5.6-1.73C40.64,35.08,40,28.14,35.49,22.61Zm-2.3,11.58a2.26,2.26,0,0,1-1.55.34,8.18,8.18,0,0,1-3.76-1.38,13.36,13.36,0,0,1-2.8-2.41,14.34,14.34,0,0,1-1.27-1.69c-2-3.12-2-6-1.13-6.79a2.35,2.35,0,0,1,1.55-.35h0a10.34,10.34,0,0,1,6.56,3.79C34.05,29.41,34.2,33.3,33.19,34.19Z"/></g></g></svg>